<svg width="1614" height="970" viewBox="0 0 1614 970" fill="none" xmlns="http://www.w3.org/2000/svg">
<g filter="url(#filter0_d_165_253)">
<path d="M796 889C796 889 824.021 846.894 982.807 811.298C1141.59 775.703 1440 795.478 1440 795.478" stroke="white" stroke-opacity="0.75" shape-rendering="crispEdges"/>
</g>
<g filter="url(#filter1_d_165_253)">
<path d="M796 893C796 893 824.021 826.225 982.807 769.776C1141.59 713.326 1440 744.687 1440 744.687" stroke="white" stroke-opacity="0.25" shape-rendering="crispEdges"/>
</g>
<g filter="url(#filter2_d_165_253)">
<path d="M796 889C796 889 824.021 835.835 982.807 790.892C1141.59 745.948 1440 770.917 1440 770.917" stroke="white" stroke-opacity="0.4" shape-rendering="crispEdges"/>
</g>
<g clip-path="url(#clip0_165_253)">
<path d="M1255.71 417.232C1352.62 417.232 1431.18 341.111 1431.18 247.21C1431.18 153.31 1352.62 77.188 1255.71 77.188C1158.8 77.188 1080.24 153.31 1080.24 247.21C1080.24 341.111 1158.8 417.232 1255.71 417.232Z" fill="#FF6884" fill-opacity="0.49"/>
<path d="M1320.15 793.833C1318.37 793.949 1317.39 791.643 1318.73 790.299L1318.87 789.744L1318.81 789.611C1317.02 785.135 1310.94 785.166 1309.16 789.648C1307.59 793.626 1305.58 797.611 1305.08 801.817C1304.86 803.674 1304.96 805.565 1305.35 807.387C1301.66 798.933 1299.71 789.702 1299.71 780.418C1299.71 778.086 1299.83 775.753 1300.08 773.426C1300.29 771.523 1300.57 769.632 1300.94 767.758C1302.91 757.627 1307.2 747.978 1313.38 739.918C1316.35 738.218 1318.83 735.561 1320.33 732.375C1320.87 731.226 1321.29 729.99 1321.49 728.731C1321.15 728.778 1320.21 723.387 1320.47 723.057C1320 722.308 1319.15 721.936 1318.64 721.206C1316.08 717.573 1312.55 718.208 1310.71 723.144C1306.78 725.221 1306.74 728.667 1309.15 731.981C1310.69 734.089 1310.9 736.942 1312.25 739.199C1312.11 739.384 1311.96 739.564 1311.82 739.75C1309.28 743.162 1307.08 746.829 1305.23 750.681C1305.75 746.4 1304.98 741.241 1303.66 737.916C1302.16 734.128 1299.35 730.937 1296.87 727.662C1293.9 723.728 1287.8 725.445 1287.27 730.432L1287.26 730.576C1287.63 730.794 1287.99 731.024 1288.34 731.268C1290.35 732.658 1289.65 735.916 1287.27 736.3L1287.22 736.309C1287.35 737.696 1287.58 739.071 1287.91 740.423C1284.73 753.283 1291.59 757.967 1301.39 758.178C1301.61 758.294 1301.82 758.41 1302.03 758.52C1301.04 761.445 1300.25 764.444 1299.66 767.485C1299.13 770.171 1298.77 772.887 1298.56 775.614C1298.31 779.055 1298.33 782.513 1298.61 785.948L1298.59 785.826C1297.89 782.043 1295.92 778.509 1293.07 776.061C1288.83 772.411 1282.83 771.067 1278.25 768.133C1276.05 766.721 1273.22 768.546 1273.61 771.221L1273.62 771.349C1274.31 771.639 1274.97 771.976 1275.62 772.353C1275.98 772.57 1276.34 772.801 1276.7 773.044C1278.7 774.434 1278.01 777.692 1275.63 778.077L1275.58 778.086L1275.47 778.103C1276.64 781.01 1278.27 783.708 1280.31 786.035C1282.29 797.261 1290.83 798.327 1299.95 795.057H1299.96C1300.96 799.606 1302.42 804.051 1304.29 808.287H1319.76C1319.81 808.107 1319.86 807.921 1319.91 807.741C1318.48 807.834 1317.04 807.747 1315.63 807.474C1316.78 806 1317.93 804.515 1319.08 803.041C1319.1 803.012 1319.13 802.983 1319.15 802.954C1319.73 802.2 1320.32 801.451 1320.9 800.697L1320.9 800.696C1320.94 798.381 1320.67 796.073 1320.15 793.833L1320.15 793.833L1320.15 793.833L1320.15 793.833H1320.15Z" fill="#F8F8F8" fill-opacity="0.75"/>
<path d="M1204.46 789.539L1217.74 789.537L1224.05 735.939L1204.46 735.94L1204.46 789.539Z" fill="#F1D4B1"/>
<path d="M1249.95 789.223C1250.36 789.952 1250.58 792.304 1250.58 793.151C1250.58 795.756 1248.56 797.868 1246.08 797.868H1204.96C1203.26 797.868 1201.88 796.427 1201.88 794.65V792.859C1201.88 792.859 1199.85 787.474 1204.04 780.837C1204.04 780.837 1209.24 786.034 1217.02 777.894L1219.31 773.546L1235.91 786.253L1245.12 787.438C1247.13 787.698 1248.91 787.398 1249.95 789.223H1249.95Z" fill="#2F2E41"/>
<path d="M1112.76 789.539L1126.04 789.537L1132.36 735.939L1112.76 735.94L1112.76 789.539Z" fill="#F1D4B1"/>
<path d="M1158.25 789.223C1158.67 789.952 1158.88 792.304 1158.88 793.151C1158.88 795.756 1156.87 797.868 1154.38 797.868H1113.26C1111.56 797.868 1110.18 796.427 1110.18 794.65V792.859C1110.18 792.859 1108.15 787.474 1112.34 780.837C1112.34 780.837 1117.54 786.034 1125.32 777.894L1127.61 773.546L1144.22 786.253L1153.42 787.438C1155.43 787.698 1157.22 787.398 1158.25 789.223H1158.25Z" fill="#2F2E41"/>
<path d="M1208.43 536.4L1213.35 543.174C1213.35 543.174 1213.8 546.337 1221.26 572.108L1225.35 765.81H1200.58L1167.48 610.825L1133.12 768.918L1111.65 770.243L1112.65 590.554C1112.65 590.554 1110.39 584.301 1112.32 576.973C1119.68 548.928 1119.25 556.322 1119.55 546.721C1119.94 534.548 1208.43 536.4 1208.43 536.4Z" fill="#2F2E41"/>
<path d="M1169.38 373.626C1183.74 373.626 1195.37 361.448 1195.37 346.426C1195.37 331.403 1183.74 319.225 1169.38 319.225C1155.03 319.225 1143.39 331.403 1143.39 346.426C1143.39 361.448 1155.03 373.626 1169.38 373.626Z" fill="#F1D4B1"/>
<path d="M1155.41 378.744L1141.03 387.062C1129.03 387.971 1120.43 391.313 1112.78 395.341L1121.21 472.714L1119.68 548.928C1119.68 548.928 1167.5 583.213 1213.35 543.173V439.617L1211.2 398.434C1210.95 393.633 1206.89 389.907 1202.34 390.538C1199.73 390.898 1196.74 390.829 1193.68 389.761L1184.16 378.201L1155.41 378.744V378.744V378.744Z" fill="#8C8C99"/>
<path d="M1236.72 314.914C1238.17 318.338 1238.76 321.82 1238.57 324.839L1254.36 356.536L1239.72 363.955L1225.29 331.003C1223.02 329.125 1220.95 326.328 1219.5 322.905C1216.19 315.085 1217.36 306.956 1222.11 304.75C1226.87 302.543 1233.41 307.094 1236.72 314.914V314.914Z" fill="#F1D4B1"/>
<path d="M1193.68 389.761L1198.03 391.845C1202.03 387.351 1214.06 388.058 1219.9 388.641L1245.56 391.201L1233.58 351.972L1251.61 344.375L1273.17 387.786C1274.47 395.151 1271.54 402.634 1265.68 406.93L1210.69 439.614L1204.3 394.846L1193.68 389.761V389.761V389.761Z" fill="#8C8C99"/>
<path d="M1060.7 573.768C1060.97 570.035 1062.03 566.675 1063.57 564.113L1064.03 528.372L1080.27 529.1L1078.06 565.277C1079.2 568.055 1079.75 571.544 1079.48 575.278C1078.86 583.807 1074.14 590.384 1068.96 589.967C1063.77 589.55 1060.07 582.298 1060.7 573.768L1060.7 573.768L1060.7 573.768Z" fill="#F1D4B1"/>
<path d="M1124.82 405.118L1117.35 393.252C1117.35 393.252 1105.18 395.684 1098.71 405.29C1092.24 414.897 1067.79 473.812 1067.79 473.812L1063.1 540.32L1081.28 536.4L1090.06 485.961L1118.27 445.608L1124.82 405.118L1124.82 405.118Z" fill="#8C8C99"/>
<path d="M1195.37 350.033C1196.35 344.849 1181.29 337.302 1181.31 337.311C1183.65 338.092 1179.97 342.576 1177.57 342.047C1177.57 342.047 1174.04 343.926 1175.97 345.543C1169.34 344.948 1160.48 338.354 1153.85 337.759C1151.18 337.515 1150.15 344.245 1148.47 346.426C1145.94 349.765 1143.39 343.124 1144.33 351.972H1143.95C1142.57 348.48 1141.19 344.926 1140.73 341.175C1140.3 337.424 1140.91 333.383 1143.2 330.455C1143.95 329.464 1140.98 326.2 1141.78 325.255C1144.33 322.19 1149.27 320.512 1151.55 317.233C1154.55 312.89 1157.98 315.956 1164.24 312.303C1165.88 311.348 1168.73 311.004 1170.55 311.5L1174.79 312.659C1173.96 313.956 1174.98 315.668 1176.46 315.458L1181.98 314.672C1184.07 315.373 1186.05 316.41 1186.98 318.408C1187.55 319.597 1187.65 320.985 1188.09 322.235C1188.89 324.538 1190.78 326.2 1192.3 328.061C1196.37 329.302 1196.59 332.489 1196.59 337.834C1200.39 340.063 1196.43 345.046 1195.37 350.033V350.033L1195.37 350.033Z" fill="#434343"/>
<path d="M1114.5 780.087C1117.81 780.239 1119.63 777.221 1117.13 775.462L1116.88 774.735L1116.98 774.561C1120.33 768.703 1131.65 768.744 1134.97 774.61C1137.91 779.816 1141.65 785.032 1142.58 790.537C1142.99 792.967 1142.8 795.442 1142.07 797.827C1148.96 786.762 1152.59 774.68 1152.59 762.53C1152.59 759.477 1152.36 756.424 1151.9 753.379C1151.52 750.888 1150.99 748.412 1150.31 745.959C1146.62 732.7 1138.63 720.071 1127.11 709.523C1121.57 707.298 1116.95 703.82 1114.16 699.651C1113.16 698.147 1112.37 696.529 1112 694.881C1112.63 694.942 1114.38 687.887 1113.9 687.454C1114.78 686.475 1116.35 685.988 1117.31 685.032C1122.08 680.278 1128.66 681.108 1132.09 687.568C1139.42 690.288 1139.49 694.797 1134.99 699.134C1132.13 701.893 1131.74 705.627 1129.23 708.581C1129.48 708.824 1129.75 709.06 1130.01 709.303C1134.75 713.768 1138.85 718.568 1142.3 723.61C1141.32 718.006 1142.77 711.255 1145.22 706.903C1148.02 701.944 1153.26 697.768 1157.88 693.482C1163.42 688.333 1174.79 690.58 1175.77 697.107L1175.8 697.296C1175.11 697.581 1174.44 697.883 1173.79 698.202C1170.04 700.021 1171.34 704.285 1175.77 704.788L1175.87 704.799C1175.62 706.614 1175.2 708.414 1174.58 710.184C1180.5 727.016 1167.72 733.146 1149.46 733.421C1149.06 733.573 1148.66 733.725 1148.26 733.87C1150.11 737.697 1151.59 741.623 1152.68 745.602C1153.66 749.118 1154.35 752.672 1154.73 756.242C1155.2 760.745 1155.16 765.271 1154.65 769.767L1154.68 769.607C1155.99 764.656 1159.65 760.031 1164.96 756.826C1172.87 752.05 1184.05 750.291 1192.59 746.451C1196.7 744.603 1201.96 746.991 1201.24 750.492L1201.21 750.66C1199.94 751.04 1198.7 751.48 1197.5 751.974C1196.81 752.258 1196.14 752.56 1195.49 752.879C1191.74 754.698 1193.04 758.962 1197.47 759.465L1197.57 759.477L1197.78 759.5C1195.6 763.304 1192.56 766.835 1188.76 769.881C1185.05 784.574 1169.15 785.968 1152.14 781.689H1152.13C1150.27 787.643 1147.55 793.46 1144.05 799.004H1115.22C1115.12 798.769 1115.03 798.525 1114.93 798.29C1117.6 798.412 1120.29 798.298 1122.91 797.941C1120.77 796.012 1118.63 794.068 1116.5 792.139C1116.44 792.101 1116.4 792.063 1116.36 792.025C1115.28 791.038 1114.18 790.058 1113.1 789.071L1113.09 789.07C1113.03 786.039 1113.52 783.018 1114.5 780.087Z" fill="url(#paint0_linear_165_253)" fill-opacity="0.75"/>
</g>
<path d="M1291.75 360.128C1260.17 387.358 1218.33 404.83 1175.36 409.02C1171.15 409.434 1166.92 409.717 1162.68 409.869C1161.74 409.906 1160.8 409.927 1159.85 409.949C1158.32 409.985 1156.77 410 1155.23 410C1153.39 410 1151.55 409.976 1149.71 409.927C1139.05 409.639 1128.42 408.564 1117.95 406.711C1117.56 406.638 1117.19 406.573 1116.8 406.5C1115.15 406.202 1113.5 405.883 1111.86 405.541C1108.71 404.895 1105.57 404.179 1102.45 403.392C1101.44 403.138 1100.43 402.876 1099.42 402.6C1097.97 402.216 1096.52 401.809 1095.08 401.395C1094.54 401.235 1094 401.083 1093.46 400.916C1092.91 400.756 1092.36 400.589 1091.81 400.415C1088.47 399.398 1085.15 398.294 1081.86 397.103C1063.12 390.398 1045.59 381.118 1029.83 369.575C1027.65 367.97 1025.44 366.285 1023.31 364.651C1011.85 355.894 1000 346.839 985.554 344.864C969.955 342.736 954.968 349.315 940.482 355.676C935.568 357.833 930.488 360.062 925.464 361.928C900.936 370.879 873.905 372.076 848.568 365.334C848.043 365.203 847.517 365.058 847 364.913V363.395C847.517 363.54 848.043 363.686 848.568 363.824C873.693 370.599 900.535 369.458 924.884 360.578C929.861 358.733 934.925 356.511 939.816 354.362C954.513 347.906 969.712 341.233 985.781 343.426C1000.66 345.459 1012.68 354.645 1024.31 363.533C1026.44 365.16 1028.64 366.844 1030.81 368.442C1046.45 379.911 1063.88 389.128 1082.49 395.782H1082.5C1085.65 396.915 1088.84 397.982 1092.05 398.97C1092.51 399.108 1092.97 399.246 1093.44 399.391C1093.95 399.543 1094.48 399.696 1095 399.848C1096.32 400.24 1097.65 400.613 1098.98 400.967C1100.28 401.33 1101.59 401.673 1102.9 401.998H1102.91C1106.28 402.847 1109.67 403.615 1113.09 404.3C1114.63 404.619 1116.18 404.91 1117.74 405.186C1118.07 405.251 1118.42 405.309 1118.76 405.367C1128.81 407.125 1139 408.159 1149.22 408.461H1149.23C1152.78 408.562 1156.33 408.574 1159.87 408.497C1160.79 408.475 1161.71 408.446 1162.63 408.417C1166.63 408.272 1170.63 408.01 1174.63 407.633H1174.63C1217.47 403.573 1259.2 386.204 1290.68 359.06C1290.84 358.93 1291.04 358.861 1291.25 358.869C1291.45 358.877 1291.65 358.961 1291.79 359.102C1291.93 359.243 1292.01 359.43 1292 359.623C1291.99 359.815 1291.9 359.996 1291.75 360.128H1291.75Z" fill="#6C63FF" fill-opacity="0.3"/>
<path d="M1167.75 72.1275C1136.17 99.3584 1094.33 116.83 1051.36 121.02C1047.15 121.434 1042.92 121.717 1038.68 121.869C1037.74 121.906 1036.8 121.927 1035.85 121.949C1034.32 121.985 1032.77 122 1031.23 122C1029.39 122 1027.55 121.976 1025.71 121.927C1015.05 121.639 1004.42 120.564 993.947 118.711C993.563 118.638 993.186 118.573 992.802 118.5C991.148 118.202 989.5 117.883 987.856 117.541C984.705 116.895 981.57 116.179 978.45 115.392C977.439 115.138 976.428 114.876 975.416 114.6C973.966 114.216 972.524 113.809 971.082 113.395C970.541 113.235 970 113.083 969.459 112.916C968.91 112.756 968.362 112.589 967.813 112.415C964.466 111.398 961.148 110.294 957.858 109.103C939.123 102.398 921.585 93.118 905.834 81.5748C903.655 79.97 901.444 78.2853 899.312 76.6515C887.852 67.894 876 58.8388 861.554 56.8637C845.955 54.736 830.968 61.315 816.482 67.6762C811.568 69.8328 806.488 72.0621 801.464 73.9284C776.936 82.8787 749.905 84.0759 724.568 77.334C724.043 77.2033 723.517 77.0581 723 76.9129V75.3952C723.517 75.5404 724.043 75.6857 724.568 75.8236C749.693 82.5995 776.535 81.4578 800.884 72.5777C805.861 70.7333 810.925 68.5112 815.816 66.3618C830.513 59.9063 845.712 53.2329 861.781 55.4259C876.659 57.4591 888.683 66.645 900.308 75.5332C902.44 77.1598 904.642 78.8444 906.806 80.442C922.453 91.9113 939.878 101.128 958.493 107.782H958.501C961.652 108.915 964.842 109.982 968.048 110.97C968.511 111.108 968.973 111.246 969.436 111.391C969.953 111.543 970.478 111.696 970.995 111.848C972.32 112.24 973.648 112.613 974.977 112.967C976.279 113.33 977.588 113.673 978.905 113.998H978.912C982.283 114.847 985.674 115.615 989.087 116.3C990.631 116.619 992.175 116.91 993.735 117.186C994.072 117.251 994.417 117.309 994.762 117.367C1004.81 119.125 1015 120.159 1025.22 120.461H1025.23C1028.78 120.562 1032.33 120.574 1035.87 120.497C1036.79 120.475 1037.71 120.446 1038.63 120.417C1042.63 120.272 1046.63 120.01 1050.63 119.633H1050.63C1093.47 115.573 1135.2 98.2038 1166.68 71.0601C1166.84 70.93 1167.04 70.8614 1167.25 70.8693C1167.45 70.8771 1167.65 70.9608 1167.79 71.102C1167.93 71.2432 1168.01 71.4303 1168 71.6225C1167.99 71.8147 1167.9 71.9963 1167.75 72.1275H1167.75Z" fill="#6C63FF" fill-opacity="0.3"/>
<path d="M636.643 718.18C591.435 785.241 531.551 828.267 470.04 838.586C464.003 839.605 457.952 840.303 451.885 840.678C450.539 840.768 449.192 840.821 447.835 840.875C445.635 840.964 443.425 841 441.226 841C438.589 841 435.952 840.94 433.315 840.821C418.052 840.112 402.848 837.462 387.849 832.899C387.3 832.72 386.761 832.559 386.211 832.38C383.844 831.647 381.484 830.86 379.131 830.02C374.621 828.428 370.132 826.664 365.667 824.726C364.219 824.101 362.772 823.457 361.324 822.777C359.248 821.829 357.184 820.828 355.119 819.809C354.345 819.415 353.571 819.04 352.797 818.628C352.011 818.235 351.226 817.824 350.44 817.394C345.649 814.891 340.899 812.173 336.19 809.24C309.372 792.727 284.267 769.873 261.719 741.445C258.6 737.493 255.436 733.344 252.384 729.321C235.979 707.754 219.014 685.454 198.334 680.59C176.006 675.35 154.552 691.552 133.816 707.217C126.781 712.529 119.51 718.019 112.318 722.615C77.2076 744.656 38.5134 747.605 2.24411 731.002C1.49233 730.68 0.740556 730.322 0 729.965V726.227C0.740556 726.585 1.49233 726.942 2.24411 727.282C38.2094 743.969 76.6327 741.157 111.487 719.288C118.612 714.746 125.861 709.274 132.863 703.981C153.901 688.083 175.658 671.648 198.66 677.049C219.956 682.056 237.169 704.678 253.809 726.567C256.861 730.573 260.014 734.721 263.111 738.656C285.509 766.901 310.452 789.6 337.099 805.985H337.11C341.621 808.775 346.188 811.404 350.777 813.836C351.439 814.176 352.101 814.515 352.763 814.873C353.503 815.248 354.255 815.624 354.996 816C356.892 816.965 358.792 817.883 360.696 818.754C362.558 819.648 364.432 820.494 366.317 821.293H366.328C371.153 823.385 376.008 825.275 380.893 826.962C383.103 827.749 385.314 828.464 387.547 829.144C388.029 829.305 388.523 829.448 389.016 829.591C403.406 833.919 417.984 836.466 432.62 837.209H432.631C437.714 837.459 442.789 837.489 447.857 837.298C449.181 837.245 450.494 837.173 451.807 837.102C457.54 836.744 463.267 836.1 468.985 835.17H468.997C530.317 825.174 590.055 782.397 635.117 715.551C635.336 715.231 635.625 715.062 635.922 715.081C636.219 715.1 636.499 715.307 636.701 715.654C636.903 716.002 637.01 716.463 636.999 716.936C636.988 717.409 636.86 717.857 636.643 718.18Z" fill="#6C63FF" fill-opacity="0.3"/>
<path d="M425.761 397.557C395.528 347.566 355.48 315.492 314.344 307.8C310.307 307.04 306.26 306.52 302.203 306.24C301.302 306.173 300.402 306.133 299.494 306.093C298.023 306.027 296.545 306 295.074 306C293.311 306 291.547 306.044 289.784 306.133C279.576 306.662 269.409 308.637 259.378 312.039C259.01 312.172 258.65 312.292 258.283 312.426C256.699 312.972 255.121 313.559 253.548 314.185C250.531 315.372 247.53 316.687 244.543 318.131C243.575 318.598 242.607 319.078 241.639 319.584C240.251 320.291 238.87 321.037 237.489 321.797C236.972 322.09 236.454 322.37 235.936 322.677C235.411 322.97 234.886 323.277 234.36 323.597C231.156 325.463 227.98 327.49 224.83 329.676C206.896 341.985 190.106 359.022 175.027 380.213C172.941 383.16 170.825 386.252 168.784 389.252C157.814 405.329 146.468 421.953 132.638 425.579C117.705 429.485 103.358 417.407 89.491 405.729C84.786 401.77 79.9235 397.677 75.1136 394.251C51.6334 377.82 25.7562 375.622 1.50077 387.999C0.998012 388.239 0.495254 388.505 0 388.772V391.558C0.495254 391.291 0.998012 391.025 1.50077 390.772C25.5529 378.332 51.2489 380.428 74.5583 396.73C79.3232 400.117 84.1707 404.196 88.8531 408.142C102.923 419.993 117.473 432.244 132.856 428.218C147.098 424.486 158.609 407.622 169.737 391.305C171.778 388.319 173.887 385.226 175.958 382.293C190.937 361.237 207.618 344.317 225.438 332.102H225.446C228.462 330.022 231.516 328.063 234.585 326.25C235.028 325.996 235.471 325.743 235.914 325.477C236.409 325.197 236.912 324.917 237.407 324.637C238.675 323.917 239.946 323.232 241.219 322.584C242.465 321.917 243.718 321.286 244.978 320.691H244.986C248.212 319.131 251.459 317.722 254.726 316.465C256.204 315.878 257.682 315.345 259.176 314.838C259.498 314.718 259.828 314.612 260.159 314.505C269.782 311.279 279.531 309.38 289.319 308.826H289.326C292.725 308.64 296.12 308.617 299.509 308.76C300.394 308.8 301.272 308.853 302.15 308.906C305.985 309.173 309.814 309.653 313.639 310.346H313.646C354.655 317.798 394.605 349.686 424.741 399.517C424.887 399.755 425.081 399.881 425.279 399.867C425.478 399.852 425.665 399.699 425.8 399.44C425.935 399.18 426.007 398.837 426 398.484C425.992 398.131 425.906 397.798 425.761 397.557H425.761Z" fill="#6C63FF" fill-opacity="0.3"/>
<path d="M1062.79 741.512C1061.7 742.493 1060.06 741.745 1060.34 740.318L1060.18 739.947L1060.09 739.901C1056.98 738.392 1053.06 741.556 1053.87 744.917C1054.58 747.901 1055.02 751.111 1056.53 753.658C1057.2 754.784 1058.09 755.763 1059.13 756.551C1053.06 753.861 1047.77 749.841 1043.73 744.785C1042.71 743.514 1041.77 742.181 1040.92 740.785C1040.22 739.642 1039.58 738.465 1039 737.255C1035.87 730.713 1034.43 723.239 1034.92 715.649C1036.1 713.185 1036.54 710.455 1036.12 707.945C1035.97 707.041 1035.7 706.149 1035.28 705.36C1035.09 705.561 1032.13 703.11 1032.15 702.798C1031.52 702.634 1030.81 702.868 1030.16 702.737C1026.92 702.084 1024.92 704.255 1025.88 707.897C1024.24 711.065 1025.72 712.961 1028.72 713.516C1030.63 713.87 1032.01 715.314 1033.87 715.846C1033.86 716.019 1033.85 716.191 1033.84 716.364C1033.68 719.538 1033.86 722.674 1034.34 725.731C1032.81 723.128 1030.06 720.719 1027.76 719.59C1025.14 718.304 1021.93 718.022 1018.9 717.521C1015.26 716.918 1012.06 721.012 1013.89 723.999L1013.95 724.086C1014.28 724.013 1014.61 723.953 1014.95 723.903C1016.85 723.62 1017.82 725.754 1016.45 727.195L1016.42 727.228C1017.11 727.914 1017.86 728.546 1018.66 729.11C1022.21 737.759 1028.69 736.759 1035.12 731.802C1035.31 731.754 1035.5 731.708 1035.69 731.656C1036.32 733.762 1037.11 735.807 1038.06 737.767C1038.89 739.503 1039.84 741.171 1040.89 742.762C1042.23 744.768 1043.75 746.64 1045.42 748.368L1045.36 748.31C1043.26 746.614 1040.45 745.706 1037.54 745.847C1033.2 746.057 1028.73 748.43 1024.49 749.203C1022.45 749.576 1021.42 752.032 1022.83 753.29L1022.9 753.35C1023.47 753.155 1024.05 752.994 1024.63 752.866C1024.96 752.794 1025.29 752.733 1025.63 752.683C1027.53 752.401 1028.5 754.534 1027.13 755.976L1027.1 756.008L1027.04 756.075C1029.06 757.053 1031.29 757.678 1033.62 757.889C1039.8 762.975 1045.79 759.138 1050.27 752.632L1050.27 752.629C1052.9 754.59 1055.78 756.255 1058.84 757.592L1068.84 749.584C1068.8 749.458 1068.75 749.331 1068.71 749.207C1067.82 749.998 1066.85 750.697 1065.82 751.277C1065.92 749.881 1066.02 748.478 1066.12 747.081C1066.12 747.051 1066.12 747.023 1066.12 746.996C1066.17 746.284 1066.23 745.572 1066.27 744.86L1066.27 744.859C1065.29 743.579 1064.11 742.459 1062.79 741.512L1062.79 741.512L1062.79 741.512L1062.79 741.512L1062.79 741.512Z" fill="#F8F8F8" fill-opacity="0.75"/>
<path d="M1154.79 765.512C1153.7 766.493 1152.06 765.745 1152.34 764.318L1152.18 763.947L1152.09 763.901C1148.98 762.392 1145.06 765.556 1145.87 768.917C1146.58 771.901 1147.02 775.111 1148.53 777.658C1149.2 778.784 1150.09 779.763 1151.13 780.551C1145.06 777.861 1139.77 773.841 1135.73 768.785C1134.71 767.514 1133.77 766.181 1132.92 764.785C1132.22 763.642 1131.58 762.465 1131 761.255C1127.87 754.713 1126.43 747.239 1126.92 739.649C1128.1 737.185 1128.54 734.455 1128.12 731.945C1127.97 731.041 1127.7 730.149 1127.28 729.36C1127.09 729.561 1124.13 727.11 1124.15 726.798C1123.52 726.634 1122.81 726.868 1122.16 726.737C1118.92 726.084 1116.92 728.255 1117.88 731.897C1116.24 735.065 1117.72 736.961 1120.72 737.516C1122.63 737.87 1124.01 739.314 1125.87 739.846C1125.86 740.019 1125.85 740.191 1125.84 740.364C1125.68 743.538 1125.86 746.674 1126.34 749.731C1124.81 747.128 1122.06 744.719 1119.76 743.59C1117.14 742.304 1113.93 742.022 1110.9 741.521C1107.26 740.918 1104.06 745.012 1105.89 747.999L1105.95 748.086C1106.28 748.013 1106.61 747.953 1106.95 747.903C1108.85 747.62 1109.82 749.754 1108.45 751.195L1108.42 751.228C1109.11 751.914 1109.86 752.546 1110.66 753.11C1114.21 761.759 1120.69 760.759 1127.12 755.802C1127.31 755.754 1127.5 755.708 1127.69 755.656C1128.32 757.762 1129.11 759.807 1130.06 761.767C1130.89 763.503 1131.84 765.171 1132.89 766.762C1134.23 768.768 1135.75 770.64 1137.42 772.368L1137.36 772.31C1135.26 770.614 1132.45 769.706 1129.54 769.847C1125.2 770.057 1120.73 772.43 1116.49 773.203C1114.45 773.576 1113.42 776.032 1114.83 777.29L1114.9 777.35C1115.47 777.155 1116.05 776.994 1116.63 776.866C1116.96 776.794 1117.29 776.733 1117.63 776.683C1119.53 776.401 1120.5 778.534 1119.13 779.976L1119.1 780.008L1119.04 780.075C1121.06 781.053 1123.29 781.678 1125.62 781.889C1131.8 786.975 1137.79 783.138 1142.27 776.632L1142.27 776.629C1144.9 778.59 1147.78 780.255 1150.84 781.592L1160.84 773.584C1160.8 773.458 1160.75 773.331 1160.71 773.207C1159.82 773.998 1158.85 774.697 1157.82 775.277C1157.92 773.881 1158.02 772.478 1158.12 771.081C1158.12 771.051 1158.12 771.023 1158.12 770.996C1158.17 770.284 1158.23 769.572 1158.27 768.86L1158.27 768.859C1157.29 767.579 1156.11 766.459 1154.79 765.512L1154.79 765.512L1154.79 765.512L1154.79 765.512L1154.79 765.512Z" fill="url(#paint1_linear_165_253)" fill-opacity="0.75"/>
<defs>
<filter id="filter0_d_165_253" x="791.585" y="789.5" width="652.446" height="107.777" filterUnits="userSpaceOnUse" color-interpolation-filters="sRGB">
<feFlood flood-opacity="0" result="BackgroundImageFix"/>
<feColorMatrix in="SourceAlpha" type="matrix" values="0 0 0 0 0 0 0 0 0 0 0 0 0 0 0 0 0 0 127 0" result="hardAlpha"/>
<feOffset dy="4"/>
<feGaussianBlur stdDeviation="2"/>
<feComposite in2="hardAlpha" operator="out"/>
<feColorMatrix type="matrix" values="0 0 0 0 0 0 0 0 0 0 0 0 0 0 0 0 0 0 0.25 0"/>
<feBlend mode="normal" in2="BackgroundImageFix" result="effect1_dropShadow_165_253"/>
<feBlend mode="normal" in="SourceGraphic" in2="effect1_dropShadow_165_253" result="shape"/>
</filter>
<filter id="filter1_d_165_253" x="791.54" y="735.5" width="652.51" height="165.693" filterUnits="userSpaceOnUse" color-interpolation-filters="sRGB">
<feFlood flood-opacity="0" result="BackgroundImageFix"/>
<feColorMatrix in="SourceAlpha" type="matrix" values="0 0 0 0 0 0 0 0 0 0 0 0 0 0 0 0 0 0 127 0" result="hardAlpha"/>
<feOffset dy="4"/>
<feGaussianBlur stdDeviation="2"/>
<feComposite in2="hardAlpha" operator="out"/>
<feColorMatrix type="matrix" values="0 0 0 0 0 0 0 0 0 0 0 0 0 0 0 0 0 0 0.25 0"/>
<feBlend mode="normal" in2="BackgroundImageFix" result="effect1_dropShadow_165_253"/>
<feBlend mode="normal" in="SourceGraphic" in2="effect1_dropShadow_165_253" result="shape"/>
</filter>
<filter id="filter2_d_165_253" x="791.558" y="763.5" width="652.481" height="133.733" filterUnits="userSpaceOnUse" color-interpolation-filters="sRGB">
<feFlood flood-opacity="0" result="BackgroundImageFix"/>
<feColorMatrix in="SourceAlpha" type="matrix" values="0 0 0 0 0 0 0 0 0 0 0 0 0 0 0 0 0 0 127 0" result="hardAlpha"/>
<feOffset dy="4"/>
<feGaussianBlur stdDeviation="2"/>
<feComposite in2="hardAlpha" operator="out"/>
<feColorMatrix type="matrix" values="0 0 0 0 0 0 0 0 0 0 0 0 0 0 0 0 0 0 0.25 0"/>
<feBlend mode="normal" in2="BackgroundImageFix" result="effect1_dropShadow_165_253"/>
<feBlend mode="normal" in="SourceGraphic" in2="effect1_dropShadow_165_253" result="shape"/>
</filter>
<linearGradient id="paint0_linear_165_253" x1="1156.66" y1="682" x2="1156.66" y2="799.004" gradientUnits="userSpaceOnUse">
<stop stop-color="#F8F8F8" stop-opacity="0.73"/>
<stop offset="1" stop-color="#F8F8F8"/>
</linearGradient>
<linearGradient id="paint1_linear_165_253" x1="1107.5" y1="736.403" x2="1146.47" y2="785.092" gradientUnits="userSpaceOnUse">
<stop stop-color="#F8F8F8" stop-opacity="0.67"/>
<stop offset="1" stop-color="#F8F8F8"/>
</linearGradient>
<clipPath id="clip0_165_253">
<rect width="891" height="799" fill="white" transform="translate(723)"/>
</clipPath>
</defs>
</svg>
